{
    "asset" : {
        "generator" : "Khronos glTF Blender I/O v0.9.36",
        "version" : "2.0"
    },
    "scene" : 0,
    "scenes" : [
        {
            "name" : "Scene",
            "nodes" : [
                0,
                1
            ]
        }
    ],
    "nodes" : [
        {
            "mesh" : 0,
            "name" : "Cube",
            "rotation" : [
                0.7071068286895752,
                0,
                0,
                0.7071067690849304
            ],
            "scale" : [
                0.7907932996749878,
                0.7907934188842773,
                0.7907934188842773
            ],
            "translation" : [
                -1.2002921104431152,
                8.467875480651855,
                2.014460802078247
            ]
        },
        {
            "mesh" : 1,
            "name" : "Cube.001",
            "rotation" : [
                -0.0012341126566752791,
                -0.7071056365966797,
                -0.7071057558059692,
                -0.001234112773090601
            ],
            "scale" : [
                0.9945268034934998,
                0.9945269823074341,
                0.9945269227027893
            ],
            "translation" : [
                -1.2002921104431152,
                12.339171409606934,
                -7.577174663543701
            ]
        }
    ],
    "meshes" : [
        {
            "name" : "Cube.001",
            "primitives" : [
                {
                    "attributes" : {
                        "POSITION" : 0,
                        "NORMAL" : 1
                    },
                    "indices" : 2
                }
            ]
        },
        {
            "name" : "Cube.002",
            "primitives" : [
                {
                    "attributes" : {
                        "POSITION" : 3,
                        "NORMAL" : 4
                    },
                    "indices" : 5
                }
            ]
        }
    ],
    "accessors" : [
        {
            "bufferView" : 0,
            "componentType" : 5126,
            "count" : 920,
            "max" : [
                0.8160667419433594,
                -1.040064811706543,
                11.973044395446777
            ],
            "min" : [
                -0.8160672187805176,
                -5.936467170715332,
                -3.8042516708374023
            ],
            "type" : "VEC3"
        },
        {
            "bufferView" : 1,
            "componentType" : 5126,
            "count" : 920,
            "type" : "VEC3"
        },
        {
            "bufferView" : 2,
            "componentType" : 5123,
            "count" : 2724,
            "type" : "SCALAR"
        },
        {
            "bufferView" : 3,
            "componentType" : 5126,
            "count" : 2253,
            "max" : [
                0.9871630668640137,
                6.177023410797119,
                4.486802101135254
            ],
            "min" : [
                -0.9890398979187012,
                -0.5420665740966797,
                -6.975174903869629
            ],
            "type" : "VEC3"
        },
        {
            "bufferView" : 4,
            "componentType" : 5126,
            "count" : 2253,
            "type" : "VEC3"
        },
        {
            "bufferView" : 5,
            "componentType" : 5123,
            "count" : 6420,
            "type" : "SCALAR"
        }
    ],
    "bufferViews" : [
        {
            "buffer" : 0,
            "byteLength" : 11040,
            "byteOffset" : 0
        },
        {
            "buffer" : 0,
            "byteLength" : 11040,
            "byteOffset" : 11040
        },
        {
            "buffer" : 0,
            "byteLength" : 5448,
            "byteOffset" : 22080
        },
        {
            "buffer" : 0,
            "byteLength" : 27036,
            "byteOffset" : 27528
        },
        {
            "buffer" : 0,
            "byteLength" : 27036,
            "byteOffset" : 54564
        },
        {
            "buffer" : 0,
            "byteLength" : 12840,
            "byteOffset" : 81600
        }
    ],
    "buffers" : [
        {
            "byteLength" : 94440,
            "uri" : "data:application/octet-stream;base64,"
        }
    ]
}
