{
    "asset" : {
        "generator" : "Khronos glTF Blender I/O v0.9.36",
        "version" : "2.0"
    },
    "scene" : 0,
    "scenes" : [
        {
            "name" : "Scene",
            "nodes" : [
                0,
                1,
                2,
                3
            ]
        }
    ],
    "nodes" : [
        {
            "name" : "Light",
            "rotation" : [
                0.16907575726509094,
                0.7558803558349609,
                -0.27217137813568115,
                0.570947527885437
            ],
            "translation" : [
                4.076245307922363,
                5.903861999511719,
                -1.0054539442062378
            ]
        },
        {
            "name" : "Camera",
            "rotation" : [
                0.483536034822464,
                0.33687159419059753,
                -0.20870360732078552,
                0.7804827094078064
            ],
            "translation" : [
                7.358891487121582,
                4.958309173583984,
                6.925790786743164
            ]
        },
        {
            "mesh" : 0,
            "name" : "Cube",
            "scale" : [
                0.7907932996749878,
                0.7907932996749878,
                0.7907932996749878
            ],
            "translation" : [
                -1.2002921104431152,
                8.467874526977539,
                2.0144593715667725
            ]
        },
        {
            "mesh" : 1,
            "name" : "Cube.001",
            "rotation" : [
                0,
                0,
                0.9999984502792358,
                0.0017452986212447286
            ],
            "scale" : [
                0.9945269227027893,
                0.9945269227027893,
                0.9945268630981445
            ],
            "translation" : [
                -1.2002921104431152,
                12.339168548583984,
                -7.577175140380859
            ]
        }
    ],
    "meshes" : [
        {
            "name" : "Cube.003",
            "primitives" : [
                {
                    "attributes" : {
                        "POSITION" : 0,
                        "NORMAL" : 1
                    },
                    "indices" : 2
                }
            ]
        },
        {
            "name" : "Cube.005",
            "primitives" : [
                {
                    "attributes" : {
                        "POSITION" : 3,
                        "NORMAL" : 4
                    },
                    "indices" : 5
                }
            ]
        }
    ],
    "accessors" : [
        {
            "bufferView" : 0,
            "componentType" : 5126,
            "count" : 920,
            "max" : [
                0.8160667419433594,
                3.8042516708374023,
                -1.040064811706543
            ],
            "min" : [
                -0.8160672187805176,
                -11.973044395446777,
                -5.936467170715332
            ],
            "type" : "VEC3"
        },
        {
            "bufferView" : 1,
            "componentType" : 5126,
            "count" : 920,
            "type" : "VEC3"
        },
        {
            "bufferView" : 2,
            "componentType" : 5123,
            "count" : 2724,
            "type" : "SCALAR"
        },
        {
            "bufferView" : 3,
            "componentType" : 5126,
            "count" : 2253,
            "max" : [
                0.9871630668640137,
                6.975174903869629,
                6.177023410797119
            ],
            "min" : [
                -0.9890398979187012,
                -4.486802101135254,
                -0.5420665740966797
            ],
            "type" : "VEC3"
        },
        {
            "bufferView" : 4,
            "componentType" : 5126,
            "count" : 2253,
            "type" : "VEC3"
        },
        {
            "bufferView" : 5,
            "componentType" : 5123,
            "count" : 6420,
            "type" : "SCALAR"
        }
    ],
    "bufferViews" : [
        {
            "buffer" : 0,
            "byteLength" : 11040,
            "byteOffset" : 0
        },
        {
            "buffer" : 0,
            "byteLength" : 11040,
            "byteOffset" : 11040
        },
        {
            "buffer" : 0,
            "byteLength" : 5448,
            "byteOffset" : 22080
        },
        {
            "buffer" : 0,
            "byteLength" : 27036,
            "byteOffset" : 27528
        },
        {
            "buffer" : 0,
            "byteLength" : 27036,
            "byteOffset" : 54564
        },
        {
            "buffer" : 0,
            "byteLength" : 12840,
            "byteOffset" : 81600
        }
    ],
    "buffers" : [
        {
            "byteLength" : 94440,
            "uri" : "data:application/octet-stream;base64,"
        }
    ]
}
